# xmcd
#
# Track frame offsets: 
#        182
#        10530
#        23499
#        37803
#        50471
#        61897
#        75272
#        89925
#        102098
#        117101
#
# Disc length: 1742 seconds
#
# Revision: 2
# Processed by: cddbd v1.5.1PL0 Copyright (c) Steve Scherf et al.
# Submitted via: ExactAudioCopy v0.95a5
#
DISCID=6506cc0a
DTITLE=Johnny Cash - Rainbow
DYEAR=1985
DGENRE=Country
TTITLE0=I'm Leaving Now
TTITLE1=Here Comes That Rainbow Again
TTITLE2=They're All The Same
TTITLE3=Easy Street
TTITLE4=Have You Ever Seen The Rain
TTITLE5=You Beat All I Ever Saw
TTITLE6=Unwed Fathers
TTITLE7=Love Me Like You Used To
TTITLE8=Casey's Last Ride
TTITLE9=Borderline (A Musical WhoDunIt)
EXTD=(c)1985 CBS Inc. * CBS 26689
EXTT0=
EXTT1=
EXTT2=
EXTT3=
EXTT4=
EXTT5=
EXTT6=
EXTT7=
EXTT8=
EXTT9=
PLAYORDER=
